<svg width="25" height="24" viewBox="0 0 25 24" fill="none" xmlns="http://www.w3.org/2000/svg">
<path d="M6.68208 10.6047H4.44952C1.74811 10.6047 0.263458 9.12002 0.263458 6.41862V4.18606C0.263458 1.48465 1.74811 0 4.44952 0H6.68208C9.38348 0 10.8681 1.48465 10.8681 4.18606V6.41862C10.8681 9.12002 9.38348 10.6047 6.68208 10.6047ZM4.44952 1.67442C2.68579 1.67442 1.93788 2.42233 1.93788 4.18606V6.41862C1.93788 8.18235 2.68579 8.93025 4.44952 8.93025H6.68208C8.4458 8.93025 9.19371 8.18235 9.19371 6.41862V4.18606C9.19371 2.42233 8.4458 1.67442 6.68208 1.67442H4.44952Z" fill="white"/>
<path d="M20.0775 10.6047H17.8449C15.1435 10.6047 13.6588 9.12002 13.6588 6.41862V4.18606C13.6588 1.48465 15.1435 0 17.8449 0H20.0775C22.7789 0 24.2635 1.48465 24.2635 4.18606V6.41862C24.2635 9.12002 22.7789 10.6047 20.0775 10.6047ZM17.8449 1.67442C16.0812 1.67442 15.3333 2.42233 15.3333 4.18606V6.41862C15.3333 8.18235 16.0812 8.93025 17.8449 8.93025H20.0775C21.8412 8.93025 22.5891 8.18235 22.5891 6.41862V4.18606C22.5891 2.42233 21.8412 1.67442 20.0775 1.67442H17.8449Z" fill="white"/>
<path d="M20.0775 24.0002H17.8449C15.1435 24.0002 13.6588 22.5155 13.6588 19.8141V17.5816C13.6588 14.8802 15.1435 13.3955 17.8449 13.3955H20.0775C22.7789 13.3955 24.2635 14.8802 24.2635 17.5816V19.8141C24.2635 22.5155 22.7789 24.0002 20.0775 24.0002ZM17.8449 15.0699C16.0812 15.0699 15.3333 15.8178 15.3333 17.5816V19.8141C15.3333 21.5779 16.0812 22.3258 17.8449 22.3258H20.0775C21.8412 22.3258 22.5891 21.5779 22.5891 19.8141V17.5816C22.5891 15.8178 21.8412 15.0699 20.0775 15.0699H17.8449Z" fill="white"/>
<path d="M6.68208 24.0002H4.44952C1.74811 24.0002 0.263458 22.5155 0.263458 19.8141V17.5816C0.263458 14.8802 1.74811 13.3955 4.44952 13.3955H6.68208C9.38348 13.3955 10.8681 14.8802 10.8681 17.5816V19.8141C10.8681 22.5155 9.38348 24.0002 6.68208 24.0002ZM4.44952 15.0699C2.68579 15.0699 1.93788 15.8178 1.93788 17.5816V19.8141C1.93788 21.5779 2.68579 22.3258 4.44952 22.3258H6.68208C8.4458 22.3258 9.19371 21.5779 9.19371 19.8141V17.5816C9.19371 15.8178 8.4458 15.0699 6.68208 15.0699H4.44952Z" fill="white"/>
</svg>
